<svg width="700" height="540" viewBox="0 0 700 540" fill="none" xmlns="http://www.w3.org/2000/svg">
<path d="M240.147 87.867C240.147 87.867 227.459 43.0655 274.985 24.8867C362.506 -8.59036 391.289 34.854 391.289 34.854L401.719 104.608C401.719 104.608 403.964 176.499 415.974 223.513C427.983 270.528 429.67 311.489 429.67 311.489L403.791 338.468L351.725 271.508L303.675 197.185L240.147 87.867Z" fill="#EEB37A"/>
<path d="M240.147 87.867C240.147 87.867 227.459 43.0655 274.985 24.8867C362.506 -8.59036 391.289 34.854 391.289 34.854L401.719 104.608C401.719 104.608 403.964 176.499 415.974 223.513C427.983 270.528 429.67 311.489 429.67 311.489L403.791 338.468L351.725 271.508L303.675 197.185L240.147 87.867Z" fill="url(#paint0_angular_15_22)" fill-opacity="0.8"/>
<path d="M294.048 16.4043C220.259 42.4776 250.663 107.81 250.663 107.81C250.663 107.81 276.201 142.981 290.172 167.009C303.282 189.556 307.114 204.113 320.339 226.593C337.9 256.44 371.549 298.986 371.549 298.986L403.91 341.924L428.848 318.222C428.848 318.222 430.907 272.068 420.878 238.289C411.463 206.579 408.223 184.456 406.862 151.406C404.939 104.696 391.334 36.5126 391.334 36.5126C391.334 36.5126 367.837 -9.6689 294.048 16.4043Z" stroke="black" stroke-width="15" stroke-linecap="round"/>
<path d="M274.345 140.446C274.345 140.446 247.304 86.5214 312.693 63.0934C378.082 39.6653 398.934 81.2493 398.934 81.2493" stroke="black" stroke-width="15" stroke-linecap="round"/>
<path d="M290.487 165.916C290.487 165.916 285.125 140.583 329.885 113.494C374.645 86.4039 402.439 105.159 402.439 105.159M321.987 226.937C321.987 226.937 340.45 155.581 404.407 152.947M374.124 300.32C374.124 300.32 366.707 251.317 412.356 214.885M398.254 335.678C398.254 335.678 380.98 300.758 426.629 264.326" stroke="black" stroke-width="15" stroke-linecap="round"/>
<path d="M615.077 138.291C615.077 138.291 667.797 131.823 677.503 194.879C695.377 311 640.598 337.82 640.598 337.82L560.583 336.264C560.583 336.264 480.004 324.055 424.969 329.215C369.935 334.375 323.933 327.927 323.933 327.927L299.621 290.026L385.76 239.083L479.211 194.684L615.077 138.291Z" fill="#EEB37A"/>
<path d="M615.077 138.291C615.077 138.291 667.797 131.823 677.503 194.879C695.377 311 640.598 337.82 640.598 337.82L560.583 336.264C560.583 336.264 480.004 324.055 424.969 329.215C369.935 334.375 323.933 327.927 323.933 327.927L299.621 290.026L385.76 239.083L479.211 194.684L615.077 138.291Z" fill="url(#paint1_angular_15_22)" fill-opacity="0.8"/>
<path d="M682.723 220.42C670.05 122.968 590.529 147.24 590.529 147.24C590.529 147.24 545.685 171.741 515.821 184.146C487.797 195.787 470.731 197.525 442.756 209.324C405.613 224.989 350.754 258.065 350.754 258.065L295.746 289.453L316.615 325.497C316.615 325.497 367.57 337.699 407.423 332.246C444.834 327.126 470.196 327.705 507.313 332.908C559.771 340.261 638.74 337.53 638.74 337.53C638.74 337.53 695.396 317.873 682.723 220.42Z" stroke="black" stroke-width="15" stroke-linecap="round"/>
<path d="M548.921 169.956C548.921 169.956 614.988 147.496 626.578 233.922C638.169 320.348 587.221 337.668 587.221 337.668" stroke="black" stroke-width="15" stroke-linecap="round"/>
<path d="M516.968 184.767C516.968 184.767 546.377 183.369 566.622 244.837C586.868 306.305 559.81 337.046 559.81 337.046M442.007 211.306C442.007 211.306 517.396 249.224 506.141 329.524M348.697 260.997C348.697 260.997 404.928 261.979 435.383 326.505M303.958 283.704C303.958 283.704 346.689 269.455 377.143 333.981" stroke="black" stroke-width="15" stroke-linecap="round"/>
<path d="M68.3932 271.697C68.3932 271.697 15.2057 234.785 50.1954 173.294C114.63 60.0573 183.905 81.3001 183.905 81.3001L256.702 147.005C256.702 147.005 322.595 222.232 377.007 262.12C431.42 302.009 469.401 344.511 469.401 344.511L465.432 396.338L350.387 370.399L233.152 333.006L68.3932 271.697Z" fill="#EEB37A"/>
<path d="M68.3932 271.697C68.3932 271.697 15.2057 234.785 50.1954 173.294C114.63 60.0573 183.905 81.3001 183.905 81.3001L256.702 147.005C256.702 147.005 322.595 222.232 377.007 262.12C431.42 302.009 469.401 344.511 469.401 344.511L465.432 396.338L350.387 370.399L233.152 333.006L68.3932 271.697Z" fill="url(#paint2_angular_15_22)" fill-opacity="0.8"/>
<path d="M63.1785 147.351C6.95354 240.511 97.2972 283.83 97.2972 283.83C97.2972 283.83 155.781 299.053 192.004 312.521C225.993 325.159 242.963 337.411 277.017 349.875C322.232 366.424 395.941 382.405 395.941 382.405L468.611 399.943L474.465 352.467C474.465 352.467 435.92 301.081 395.322 273.658C357.21 247.916 334.195 227.017 303.55 192.724C260.238 144.256 185.418 83.0416 185.418 83.0416C185.418 83.0416 119.403 54.1915 63.1785 147.351Z" stroke="black" stroke-width="15" stroke-linecap="round"/>
<path d="M151.55 297.969C151.55 297.969 74.8913 263.932 124.43 181.031C173.97 98.1296 233.085 124.377 233.085 124.377" stroke="black" stroke-width="15" stroke-linecap="round"/>
<path d="M191.377 311.07C191.377 311.07 163.248 288.597 187.399 219.979C211.55 151.361 257.961 146.961 257.961 146.961M279.09 348.79C279.09 348.79 235.91 255.851 302.273 196.547M399.884 381.564C399.884 381.564 348.647 335.485 365.503 256.048M457.022 398.23C457.022 398.23 407.634 375.98 424.49 296.543" stroke="black" stroke-width="15" stroke-linecap="round"/>
<defs>
<radialGradient id="paint0_angular_15_22" cx="0" cy="0" r="1" gradientUnits="userSpaceOnUse" gradientTransform="translate(368.902 15.6206) rotate(80.3912) scale(304.871 130.059)">
<stop stop-color="#FF961B"/>
<stop offset="1" stop-color="#874A02"/>
</radialGradient>
<radialGradient id="paint1_angular_15_22" cx="0" cy="0" r="1" gradientUnits="userSpaceOnUse" gradientTransform="translate(666.989 313.921) rotate(179.884) scale(346.13 164.422)">
<stop stop-color="#FF961B"/>
<stop offset="1" stop-color="#874A02"/>
</radialGradient>
<radialGradient id="paint2_angular_15_22" cx="0" cy="0" r="1" gradientUnits="userSpaceOnUse" gradientTransform="translate(35 215.5) rotate(19.8472) scale(468.317 246.777)">
<stop stop-color="#FF961B"/>
<stop offset="1" stop-color="#874A02"/>
</radialGradient>
</defs>
</svg>
