<svg id="svg" version="1.1" xmlns="http://www.w3.org/2000/svg" xmlns:xlink="http://www.w3.org/1999/xlink" width="400" height="400" viewBox="0, 0, 400,400"><g id="svgg"><path id="path0" d="M190.430 31.842 C 149.598 35.075,113.119 51.943,84.428 80.859 C 24.673 141.083,18.061 233.312,68.555 302.259 C 103.374 349.802,168.727 377.052,226.563 368.143 C 234.637 366.900,239.446 365.933,246.094 364.217 C 350.805 337.195,403.150 219.397,353.171 123.249 C 320.734 60.849,259.371 26.383,190.430 31.842 M218.462 74.048 C 286.353 82.403,335.459 140.142,331.636 207.120 C 325.570 313.369,199.954 367.137,120.253 297.599 C 63.734 248.286,59.622 164.424,111.167 112.299 C 138.778 84.377,180.764 69.409,218.462 74.048 M208.594 103.118 C 150.338 108.887,113.549 160.311,130.623 212.109 C 131.154 213.721,132.642 218.045,133.930 221.720 C 142.553 246.314,136.148 259.098,112.988 263.519 C 111.623 263.780,111.938 264.283,114.030 265.183 C 123.535 269.272,138.029 267.194,146.454 260.534 C 154.367 254.279,155.675 250.889,155.641 236.719 C 155.617 226.803,155.432 224.863,153.297 212.184 C 152.766 209.028,152.123 203.765,151.868 200.488 C 151.594 196.965,151.241 194.531,151.003 194.531 C 150.782 194.531,149.060 195.083,147.175 195.757 L 143.750 196.982 143.758 200.737 C 143.767 204.720,144.456 208.471,146.433 215.313 C 150.622 229.812,150.613 242.489,146.406 251.660 C 145.121 254.462,144.790 254.653,142.910 253.680 C 141.509 252.956,141.526 252.539,143.132 248.106 C 146.374 239.163,145.848 230.481,140.999 212.891 C 139.735 208.305,139.110 204.263,138.822 198.814 L 138.557 193.786 139.493 193.391 C 140.008 193.174,142.803 192.276,145.703 191.395 C 152.392 189.363,151.944 189.662,152.722 186.705 C 153.087 185.316,153.510 183.801,153.661 183.337 C 153.989 182.330,152.908 181.920,145.508 180.243 C 139.882 178.969,140.109 179.138,140.647 176.630 C 141.183 174.131,140.923 174.146,148.680 176.172 C 151.971 177.031,154.826 177.734,155.024 177.734 C 155.223 177.734,156.192 176.158,157.178 174.231 L 158.971 170.728 157.318 169.788 C 156.408 169.271,153.555 167.752,150.977 166.413 C 144.884 163.250,145.057 163.437,146.148 161.193 C 146.714 160.027,147.284 159.375,147.736 159.375 C 148.345 159.375,155.185 163.016,159.375 165.570 C 160.746 166.405,162.109 166.671,162.109 166.103 C 162.109 165.936,162.812 164.864,163.671 163.721 C 165.568 161.197,166.018 161.881,158.976 156.583 C 152.607 151.791,152.657 151.863,154.153 149.601 C 155.462 147.624,155.523 147.632,158.789 150.211 C 160.293 151.399,163.074 153.596,164.969 155.095 C 167.167 156.833,168.597 157.712,168.916 157.523 C 170.065 156.843,173.047 153.968,173.047 153.541 C 173.047 153.287,170.669 150.334,167.762 146.978 L 162.476 140.877 163.935 139.384 C 166.011 137.258,165.725 137.050,173.423 146.289 C 177.698 151.420,177.087 151.134,180.025 149.383 C 183.324 147.418,183.758 148.653,174.609 133.984 C 168.583 124.323,168.409 123.969,169.342 123.284 C 172.418 121.024,172.299 120.954,175.984 127.148 C 181.398 136.249,187.128 145.313,187.466 145.313 C 187.754 145.313,192.674 143.375,192.882 143.180 C 192.970 143.097,189.853 133.946,187.288 126.758 C 186.398 124.264,186.512 123.986,188.725 123.262 C 191.243 122.438,190.773 121.685,194.317 132.227 C 197.880 142.826,197.339 142.043,200.439 141.087 C 203.498 140.143,203.439 140.889,201.399 128.973 C 199.762 119.408,199.721 119.737,202.594 119.377 L 204.601 119.125 204.994 121.379 C 205.210 122.619,205.967 127.214,206.676 131.592 L 207.964 139.551 210.697 139.297 C 214.184 138.973,213.816 140.147,214.121 128.391 C 214.267 122.766,214.401 118.120,214.420 118.066 C 214.438 118.013,215.527 117.969,216.838 117.969 L 219.224 117.969 218.926 127.246 C 218.763 132.349,218.612 137.051,218.592 137.695 C 218.555 138.848,218.593 138.871,220.898 139.086 C 224.190 139.394,224.510 139.253,224.820 137.364 C 225.128 135.489,228.016 120.560,228.332 119.212 C 228.521 118.404,232.268 118.205,233.133 118.957 C 233.202 119.016,232.340 123.656,231.219 129.266 C 230.098 134.876,229.276 139.563,229.394 139.680 C 229.865 140.152,234.528 141.019,234.851 140.696 C 235.039 140.507,237.018 135.009,239.248 128.477 C 244.974 111.706,244.215 113.458,245.695 113.581 C 246.388 113.639,247.909 114.122,249.075 114.655 C 250.241 115.189,251.366 115.625,251.574 115.625 C 252.131 115.625,251.680 116.949,245.719 132.813 C 244.468 136.143,243.179 139.760,242.856 140.852 L 242.269 142.836 245.256 143.920 C 249.735 145.547,249.262 145.815,252.811 139.648 C 264.408 119.500,264.619 119.197,266.430 120.118 C 268.850 121.348,268.864 121.388,267.639 123.585 C 265.723 127.022,259.618 137.486,256.699 142.337 C 253.344 147.913,253.355 147.158,256.601 148.926 C 260.114 150.839,259.668 151.030,263.419 145.996 C 269.631 137.659,277.595 129.656,284.086 125.228 C 287.032 123.218,287.013 123.171,282.129 120.195 C 260.562 107.056,233.138 100.688,208.594 103.118 M340.044 125.293 C 340.523 128.271,340.552 128.319,342.270 128.913 C 344.367 129.638,344.400 130.388,342.383 131.501 C 340.135 132.741,339.844 133.086,339.844 134.508 C 339.844 136.930,338.744 137.100,336.363 135.047 C 335.118 133.973,334.883 133.914,332.782 134.152 C 330.001 134.467,329.666 134.060,331.018 132.017 C 332.242 130.168,332.254 129.899,331.217 127.556 C 330.207 125.273,330.310 125.173,333.095 125.732 C 335.296 126.174,335.386 126.157,336.913 125.038 C 339.093 123.440,339.755 123.494,340.044 125.293 M71.523 125.380 C 73.135 126.469,73.406 126.526,75.879 126.300 C 78.828 126.031,78.847 126.056,77.563 128.512 L 76.646 130.266 77.772 132.496 C 79.095 135.117,78.966 135.264,75.630 134.922 C 73.202 134.674,73.043 134.712,71.618 135.886 C 69.641 137.516,68.752 137.501,68.745 135.840 C 68.735 133.644,68.369 133.038,66.384 131.934 C 63.920 130.563,63.917 129.894,66.374 129.305 L 68.295 128.844 68.567 126.824 C 68.986 123.720,69.032 123.697,71.523 125.380 M113.544 132.048 C 110.340 134.568,113.282 139.754,117.287 138.649 C 119.059 138.159,119.922 136.997,119.922 135.099 C 119.922 131.809,116.145 130.002,113.544 132.048 M296.094 149.362 C 293.149 150.426,283.791 156.154,282.910 157.433 C 281.027 160.167,283.137 164.063,286.502 164.063 C 287.925 164.063,292.933 161.407,299.326 157.263 C 303.968 154.254,301.212 147.515,296.094 149.362 M63.953 151.604 C 68.055 153.590,68.647 157.134,65.808 162.699 C 64.776 164.720,64.142 166.422,64.287 166.775 C 64.424 167.109,64.507 178.830,64.471 192.821 L 64.405 218.260 68.140 221.708 L 71.875 225.156 71.875 229.941 L 71.875 234.726 70.569 235.722 C 68.267 237.478,65.265 236.122,65.824 233.579 C 66.280 231.500,64.013 229.688,60.957 229.688 C 57.114 229.688,55.078 231.202,55.078 234.061 C 55.078 236.671,51.983 237.600,50.230 235.517 C 49.267 234.373,49.219 234.094,49.219 229.710 L 49.219 225.105 52.734 221.806 L 56.250 218.507 56.250 196.956 L 56.250 175.406 55.307 175.169 C 54.181 174.886,53.725 173.480,54.330 172.153 C 54.609 171.541,54.636 170.753,54.408 169.885 C 53.928 168.064,54.182 167.231,55.302 166.950 C 56.526 166.643,56.515 166.561,54.796 163.271 C 50.503 155.053,56.168 147.836,63.953 151.604 M350.253 151.590 C 354.134 153.469,354.745 157.528,351.970 162.998 C 350.448 165.997,350.392 166.221,351.053 166.676 C 352.563 167.715,352.739 168.009,352.488 169.061 C 352.349 169.642,352.069 170.329,351.865 170.589 C 351.621 170.900,351.706 171.362,352.115 171.945 C 353.054 173.286,352.905 174.564,351.758 175.000 L 350.781 175.371 350.781 196.911 L 350.781 218.451 352.246 219.880 C 353.052 220.666,354.629 222.095,355.750 223.057 L 357.789 224.805 357.890 229.629 L 357.991 234.454 356.724 235.587 C 354.556 237.524,351.953 236.410,351.953 233.545 C 351.953 229.273,344.416 228.006,341.705 231.822 C 341.547 232.045,341.414 232.930,341.410 233.789 C 341.395 236.457,338.483 237.596,336.569 235.681 C 335.201 234.313,335.057 233.587,335.217 228.872 L 335.352 224.891 337.305 223.286 C 338.379 222.402,340.021 220.939,340.954 220.035 L 342.651 218.390 342.526 191.944 L 342.400 165.498 341.394 163.901 C 336.099 155.502,341.843 147.519,350.253 151.590 M102.686 157.203 C 97.609 160.652,100.406 167.891,106.658 167.485 C 114.305 166.989,113.884 156.250,106.219 156.250 C 104.603 156.250,103.748 156.481,102.686 157.203 M58.426 158.426 C 57.507 159.346,57.678 160.775,58.814 161.669 C 60.980 163.372,63.822 160.302,61.786 158.459 C 60.883 157.642,59.226 157.626,58.426 158.426 M344.377 158.320 C 343.372 159.055,343.703 160.876,345.020 161.854 L 346.094 162.653 347.168 161.854 C 348.430 160.916,348.742 159.345,347.845 158.448 C 347.081 157.684,345.335 157.620,344.377 158.320 M211.328 159.228 C 197.979 160.930,187.334 166.200,177.348 176.052 C 174.450 178.911,171.930 181.250,171.747 181.250 C 170.643 181.250,173.027 174.725,175.380 171.304 C 177.374 168.406,175.633 169.703,172.853 173.186 C 166.880 180.670,163.977 189.250,163.964 199.452 C 163.956 205.224,164.467 207.181,165.225 204.280 C 174.599 168.372,205.872 154.139,240.194 170.162 C 244.773 172.299,244.332 172.375,246.844 169.030 C 248.009 167.479,248.712 166.416,248.405 166.667 C 247.966 167.027,247.206 166.810,244.802 165.637 C 235.509 161.105,219.959 158.127,211.328 159.228 M177.514 168.066 L 176.367 169.336 177.637 168.189 C 178.820 167.119,179.086 166.797,178.784 166.797 C 178.717 166.797,178.146 167.368,177.514 168.066 M298.769 171.655 C 290.708 173.567,289.844 174.120,289.844 177.369 C 289.844 180.092,291.907 181.813,294.838 181.535 C 307.024 180.377,312.640 176.348,308.553 171.693 C 307.013 169.939,306.021 169.935,298.769 171.655 M213.574 172.548 C 214.272 172.635,215.415 172.635,216.113 172.548 C 216.812 172.462,216.240 172.391,214.844 172.391 C 213.447 172.391,212.876 172.462,213.574 172.548 M209.570 178.745 C 199.463 180.524,190.030 186.275,184.495 194.030 C 182.586 196.706,182.684 196.691,180.078 194.732 L 178.711 193.704 177.444 196.435 C 173.987 203.887,173.232 213.030,174.602 230.859 C 175.768 246.042,175.315 251.560,172.432 257.305 C 171.501 259.161,170.818 260.807,170.915 260.964 C 171.446 261.823,199.666 245.075,200.249 243.555 C 200.372 243.235,200.674 243.094,200.920 243.241 C 201.185 243.400,201.164 243.258,200.866 242.890 C 200.590 242.550,199.799 242.048,199.108 241.774 C 189.982 238.160,183.607 226.479,185.104 216.113 C 186.324 207.661,191.115 201.437,201.758 194.474 C 209.379 189.489,220.184 182.892,223.964 180.917 C 226.219 179.739,226.049 179.620,220.793 178.703 C 216.780 178.004,213.719 178.015,209.570 178.745 M95.843 182.007 C 93.528 182.999,92.917 187.087,94.820 188.851 C 96.157 190.091,104.915 190.384,106.542 189.244 C 108.630 187.781,108.408 183.891,106.152 182.432 C 105.119 181.764,97.175 181.436,95.843 182.007 M251.172 183.703 C 249.346 184.593,243.633 187.369,238.477 189.872 C 230.875 193.562,222.206 198.055,221.553 198.642 C 221.483 198.705,223.071 200.399,225.082 202.406 C 232.003 209.314,233.968 216.795,231.386 226.415 C 229.870 232.064,229.811 235.676,231.128 242.259 C 231.344 243.339,231.314 243.359,229.541 243.359 C 227.409 243.359,227.331 243.628,228.495 247.011 C 230.461 252.724,234.150 257.955,238.419 261.081 C 241.415 263.275,241.324 262.860,239.974 268.170 C 238.795 272.806,238.971 272.692,235.258 271.214 C 224.984 267.125,220.063 261.203,215.360 247.270 C 214.390 244.397,214.218 244.141,213.254 244.141 C 209.934 244.141,210.045 255.973,213.433 263.086 C 219.371 275.555,230.313 281.365,254.297 284.784 C 266.544 286.530,268.098 286.145,257.472 283.997 C 239.890 280.443,233.576 278.397,226.860 274.079 C 221.900 270.890,217.068 265.191,215.460 260.632 C 214.683 258.430,214.842 258.502,218.513 262.013 C 228.396 271.466,232.945 273.311,256.778 277.537 C 259.969 278.103,262.685 278.461,262.813 278.333 C 263.235 277.910,260.713 234.361,260.242 233.949 C 260.087 233.814,258.467 233.218,256.641 232.625 C 250.455 230.616,246.696 228.280,241.077 222.953 L 239.381 221.345 239.650 219.168 C 239.976 216.541,240.554 215.083,242.643 211.617 C 244.563 208.432,244.648 208.404,250.637 208.974 C 258.240 209.697,261.484 210.783,267.130 214.498 C 268.710 215.538,269.830 216.172,269.619 215.909 C 269.409 215.645,269.103 214.990,268.940 214.453 C 268.777 213.916,267.862 211.631,266.908 209.375 C 265.954 207.119,264.582 203.867,263.861 202.148 C 263.139 200.430,261.470 196.475,260.152 193.359 C 258.834 190.244,257.225 186.421,256.576 184.863 C 255.202 181.567,255.447 181.619,251.172 183.703 M289.608 194.463 C 287.135 196.531,287.454 200.320,290.222 201.751 C 291.847 202.592,311.462 202.625,313.459 201.790 C 316.275 200.614,316.840 197.210,314.607 194.878 L 313.526 193.750 301.978 193.763 C 291.543 193.775,290.350 193.842,289.608 194.463 M99.467 204.744 C 93.789 205.245,92.185 206.291,92.189 209.491 C 92.192 212.268,94.506 214.163,97.473 213.817 C 98.111 213.743,101.058 213.418,104.022 213.095 C 111.089 212.326,112.576 211.285,111.884 207.594 C 111.277 204.361,109.206 203.885,99.467 204.744 M205.975 209.137 C 196.405 212.257,195.398 224.874,204.359 229.407 C 211.501 233.021,220.624 226.842,219.809 218.942 C 219.131 212.375,211.857 207.220,205.975 209.137 M304.058 216.184 C 300.226 217.853,299.174 223.372,302.230 225.775 C 306.310 228.985,312.109 226.641,312.109 221.783 C 312.109 217.248,308.069 214.439,304.058 216.184 M211.298 217.027 C 213.907 219.222,212.253 223.438,208.784 223.438 C 205.983 223.438,204.312 220.583,205.626 218.042 C 206.807 215.759,209.268 215.319,211.298 217.027 M105.424 232.399 C 101.805 234.369,101.881 240.527,105.548 242.424 C 111.916 245.717,117.573 237.729,112.336 232.837 C 110.929 231.522,107.442 231.301,105.424 232.399 M63.883 244.760 C 67.352 246.406,67.641 251.517,64.379 253.506 C 59.618 256.408,54.447 250.656,57.887 246.283 C 59.443 244.305,61.710 243.729,63.883 244.760 M347.495 245.175 C 350.533 247.166,350.244 252.119,346.999 253.666 C 343.395 255.385,339.844 253.181,339.844 249.224 C 339.844 245.658,344.484 243.203,347.495 245.175 M298.980 250.773 C 296.701 251.694,295.793 254.875,297.272 256.755 C 300.242 260.531,306.112 257.222,304.071 252.921 C 303.155 250.990,300.850 250.018,298.980 250.773 M73.529 265.882 C 77.702 267.984,75.703 275.000,70.931 275.000 C 67.874 275.000,66.016 273.109,66.016 269.999 C 66.016 266.039,69.763 263.985,73.529 265.882 M338.988 265.976 C 341.814 267.488,341.774 272.172,338.919 274.128 C 335.527 276.452,331.250 274.228,331.250 270.140 C 331.250 265.990,335.122 263.907,338.988 265.976 M193.247 269.043 C 191.413 270.493,188.554 272.646,186.895 273.828 C 182.917 276.661,182.188 277.247,182.422 277.426 C 182.529 277.509,184.375 278.159,186.523 278.870 C 200.448 283.483,215.115 290.921,230.646 301.246 C 237.213 305.612,236.857 305.603,237.349 301.417 L 237.587 299.390 235.688 298.373 C 234.644 297.813,232.117 296.475,230.074 295.398 C 213.222 286.521,204.342 279.084,198.606 269.043 C 197.777 267.593,196.983 266.406,196.841 266.406 C 196.698 266.406,195.081 267.593,193.247 269.043 M84.594 281.887 C 86.698 283.266,87.230 286.703,85.671 288.844 C 82.112 293.728,74.757 289.451,77.095 283.856 C 78.231 281.137,81.956 280.159,84.594 281.887 M327.026 281.264 C 331.722 282.568,331.650 289.264,326.924 290.680 C 323.506 291.704,320.703 289.516,320.703 285.824 C 320.703 283.226,322.445 281.395,325.391 280.897 C 325.498 280.879,326.234 281.044,327.026 281.264 M163.503 288.811 L 161.966 290.111 166.500 290.382 C 171.574 290.686,176.631 291.431,181.765 292.631 C 183.659 293.074,185.291 293.354,185.392 293.254 C 185.893 292.752,167.397 287.460,165.305 287.506 C 165.159 287.509,164.348 288.097,163.503 288.811 M99.350 299.585 C 103.024 300.982,103.652 305.924,100.431 308.091 C 96.120 310.992,90.823 306.480,93.183 301.916 C 94.315 299.727,97.027 298.702,99.350 299.585 M311.378 299.772 C 314.168 300.944,315.016 305.032,312.941 307.304 C 309.511 311.060,303.984 308.792,304.413 303.805 C 304.720 300.245,307.993 298.350,311.378 299.772 M124.844 319.688 C 127.230 322.074,126.470 326.171,123.384 327.563 C 119.041 329.522,114.971 325.301,117.033 320.977 C 118.438 318.032,122.515 317.359,124.844 319.688 M287.817 318.888 C 293.284 321.922,288.360 330.408,282.800 327.532 C 279.612 325.884,279.718 320.053,282.958 318.744 C 284.200 318.243,286.793 318.320,287.817 318.888 " stroke="none" fill="#f3542f" fill-rule="evenodd"></path><path id="path1" d="M183.789 0.421 C 130.803 5.283,84.077 28.720,49.897 67.578 C 5.033 118.582,-11.051 189.013,7.266 254.252 C 36.063 356.814,140.930 418.902,245.117 395.075 C 352.308 370.561,419.710 262.602,395.075 154.883 C 376.838 75.141,311.294 14.613,229.492 1.973 C 218.806 0.322,194.037 -0.519,183.789 0.421 M215.234 31.632 C 275.661 35.987,324.764 68.602,353.171 123.249 C 403.150 219.397,350.805 337.195,246.094 364.217 C 239.446 365.933,234.637 366.900,226.563 368.143 C 172.054 376.540,110.734 352.972,74.400 309.662 C 61.735 294.567,50.372 274.557,44.511 257.031 C 27.330 205.656,32.805 155.601,60.471 111.105 C 93.635 57.767,153.232 27.163,215.234 31.632 M196.094 73.436 C 124.360 79.247,71.327 137.869,75.371 206.881 C 80.311 291.173,163.329 348.629,242.578 322.601 C 317.837 297.884,353.659 212.713,318.130 142.969 C 295.296 98.146,244.977 69.476,196.094 73.436 M236.786 103.885 C 253.546 106.434,268.180 111.697,282.129 120.195 C 287.013 123.171,287.032 123.218,284.086 125.228 C 277.595 129.656,269.631 137.659,263.419 145.996 C 259.668 151.030,260.114 150.839,256.601 148.926 C 253.355 147.158,253.344 147.913,256.699 142.337 C 259.618 137.486,265.723 127.022,267.639 123.585 C 268.864 121.388,268.850 121.348,266.430 120.118 C 264.619 119.197,264.408 119.500,252.811 139.648 C 249.199 145.924,249.959 145.591,244.013 143.508 C 240.280 142.201,239.805 141.933,239.970 141.228 C 240.072 140.789,241.680 136.035,243.543 130.664 C 249.672 112.994,249.414 114.401,246.655 113.706 C 244.277 113.108,244.723 112.332,240.825 123.828 C 236.221 137.405,235.163 140.379,234.811 140.734 C 234.519 141.027,229.829 140.115,229.394 139.680 C 229.276 139.563,230.098 134.876,231.219 129.266 C 232.340 123.656,233.202 119.016,233.133 118.957 C 232.268 118.205,228.521 118.404,228.332 119.212 C 228.016 120.560,225.128 135.489,224.820 137.364 C 224.510 139.253,224.190 139.394,220.898 139.086 C 218.593 138.871,218.555 138.848,218.592 137.695 C 218.612 137.051,218.763 132.349,218.926 127.246 L 219.224 117.969 216.838 117.969 C 215.527 117.969,214.438 118.013,214.420 118.066 C 214.401 118.120,214.267 122.766,214.121 128.391 C 213.816 140.147,214.184 138.973,210.697 139.297 L 207.964 139.551 206.676 131.592 C 205.967 127.214,205.210 122.619,204.994 121.379 L 204.601 119.125 202.594 119.377 C 199.721 119.737,199.762 119.408,201.399 128.973 C 203.439 140.889,203.498 140.143,200.439 141.087 C 197.339 142.043,197.880 142.826,194.317 132.227 C 190.773 121.685,191.243 122.438,188.725 123.262 C 186.512 123.986,186.398 124.264,187.288 126.758 C 189.853 133.946,192.970 143.097,192.882 143.180 C 192.674 143.375,187.754 145.313,187.466 145.313 C 187.128 145.313,181.398 136.249,175.984 127.148 C 172.299 120.954,172.418 121.024,169.342 123.284 C 168.409 123.969,168.583 124.323,174.609 133.984 C 183.758 148.653,183.324 147.418,180.025 149.383 C 177.087 151.134,177.698 151.420,173.423 146.289 C 165.725 137.050,166.011 137.258,163.935 139.384 L 162.476 140.877 167.762 146.978 C 170.669 150.334,173.047 153.287,173.047 153.541 C 173.047 153.968,170.065 156.843,168.916 157.523 C 168.597 157.712,167.167 156.833,164.969 155.095 C 154.460 146.786,155.625 147.377,154.153 149.601 C 152.657 151.863,152.607 151.791,158.976 156.583 C 166.018 161.881,165.568 161.197,163.671 163.721 C 162.812 164.864,162.109 165.936,162.109 166.103 C 162.109 166.671,160.746 166.405,159.375 165.570 C 155.185 163.016,148.345 159.375,147.736 159.375 C 147.284 159.375,146.714 160.027,146.148 161.193 C 145.057 163.437,144.884 163.250,150.977 166.413 C 153.555 167.752,156.408 169.271,157.318 169.788 L 158.971 170.728 157.178 174.231 C 156.192 176.158,155.223 177.734,155.024 177.734 C 154.826 177.734,151.971 177.031,148.680 176.172 C 140.923 174.146,141.183 174.131,140.647 176.630 C 140.109 179.138,139.882 178.969,145.508 180.243 C 152.908 181.920,153.989 182.330,153.661 183.337 C 153.510 183.801,153.087 185.316,152.722 186.705 C 151.944 189.662,152.392 189.363,145.703 191.395 C 142.803 192.276,140.008 193.174,139.493 193.391 L 138.557 193.786 138.822 198.814 C 139.110 204.263,139.735 208.305,140.999 212.891 C 145.848 230.481,146.374 239.163,143.132 248.106 C 141.526 252.539,141.509 252.956,142.910 253.680 C 144.790 254.653,145.121 254.462,146.406 251.660 C 150.613 242.489,150.622 229.812,146.433 215.313 C 144.456 208.471,143.767 204.720,143.758 200.737 L 143.750 196.982 147.175 195.757 C 149.060 195.083,150.782 194.531,151.003 194.531 C 151.241 194.531,151.594 196.965,151.868 200.488 C 152.123 203.765,152.766 209.028,153.297 212.184 C 157.561 237.512,156.653 250.655,150.188 257.214 C 140.932 266.602,125.325 270.042,114.030 265.183 C 111.938 264.283,111.623 263.780,112.988 263.519 C 136.148 259.098,142.553 246.314,133.930 221.720 C 127.261 202.695,126.351 197.991,126.673 184.181 C 127.888 132.068,178.656 95.048,236.786 103.885 M336.913 125.038 C 335.386 126.157,335.296 126.174,333.095 125.732 C 330.310 125.173,330.207 125.273,331.217 127.556 C 332.254 129.899,332.242 130.168,331.018 132.017 C 329.666 134.060,330.001 134.467,332.782 134.152 C 334.883 133.914,335.118 133.973,336.363 135.047 C 338.744 137.100,339.844 136.930,339.844 134.508 C 339.844 133.086,340.135 132.741,342.383 131.501 C 344.400 130.388,344.367 129.638,342.270 128.913 C 340.552 128.319,340.523 128.271,340.044 125.293 C 339.755 123.494,339.093 123.440,336.913 125.038 M69.013 124.512 C 68.917 124.673,68.717 125.714,68.567 126.824 L 68.295 128.844 66.374 129.305 C 63.917 129.894,63.920 130.563,66.384 131.934 C 68.369 133.038,68.735 133.644,68.745 135.840 C 68.752 137.501,69.641 137.516,71.618 135.886 C 73.043 134.712,73.202 134.674,75.630 134.922 C 78.966 135.264,79.095 135.117,77.772 132.496 L 76.646 130.266 77.563 128.512 C 78.847 126.056,78.828 126.031,75.879 126.300 C 73.406 126.526,73.135 126.469,71.523 125.380 C 69.732 124.170,69.304 124.022,69.013 124.512 M118.911 132.452 C 121.735 135.809,118.375 140.283,114.466 138.371 C 110.602 136.480,111.896 131.250,116.229 131.250 C 117.615 131.250,118.072 131.455,118.911 132.452 M299.935 149.876 C 302.660 151.597,302.355 155.300,299.326 157.263 C 289.569 163.588,286.675 164.773,284.344 163.396 C 279.902 160.772,281.446 157.506,289.258 153.006 C 296.848 148.634,297.613 148.410,299.935 149.876 M56.629 151.660 C 52.660 153.665,51.991 157.901,54.796 163.271 C 56.515 166.561,56.526 166.643,55.302 166.950 C 54.182 167.231,53.928 168.064,54.408 169.885 C 54.636 170.753,54.609 171.541,54.330 172.153 C 53.725 173.480,54.181 174.886,55.307 175.169 L 56.250 175.406 56.250 196.956 L 56.250 218.507 52.734 221.806 L 49.219 225.105 49.219 229.710 C 49.219 234.094,49.267 234.373,50.230 235.517 C 51.983 237.600,55.078 236.671,55.078 234.061 C 55.078 231.202,57.114 229.688,60.957 229.688 C 64.013 229.688,66.280 231.500,65.824 233.579 C 65.265 236.122,68.267 237.478,70.569 235.722 L 71.875 234.726 71.875 229.941 L 71.875 225.156 68.140 221.708 L 64.405 218.260 64.471 192.821 C 64.507 178.830,64.424 167.109,64.287 166.775 C 64.142 166.422,64.776 164.720,65.808 162.699 C 69.982 154.517,64.359 147.755,56.629 151.660 M342.314 151.766 C 338.321 154.160,337.992 158.505,341.394 163.901 L 342.400 165.498 342.526 191.944 L 342.651 218.390 340.954 220.035 C 340.021 220.939,338.379 222.402,337.305 223.286 L 335.352 224.891 335.217 228.872 C 335.057 233.587,335.201 234.313,336.569 235.681 C 338.483 237.596,341.395 236.457,341.410 233.789 C 341.414 232.930,341.547 232.045,341.705 231.822 C 344.416 228.006,351.953 229.273,351.953 233.545 C 351.953 236.410,354.556 237.524,356.724 235.587 L 357.991 234.454 357.890 229.629 L 357.789 224.805 355.750 223.057 C 354.629 222.095,353.052 220.666,352.246 219.880 L 350.781 218.451 350.781 196.911 L 350.781 175.371 351.758 175.000 C 352.905 174.564,353.054 173.286,352.115 171.945 C 351.706 171.362,351.621 170.900,351.865 170.589 C 352.069 170.329,352.349 169.642,352.488 169.061 C 352.739 168.009,352.563 167.715,351.053 166.676 C 350.392 166.221,350.448 165.997,351.970 162.998 C 354.745 157.528,354.134 153.469,350.253 151.590 C 347.823 150.414,344.445 150.489,342.314 151.766 M224.008 153.532 C 231.331 154.371,240.411 156.966,246.998 160.102 C 252.155 162.558,252.065 161.989,248.133 167.279 C 244.185 172.592,244.869 172.344,240.194 170.162 C 205.872 154.139,174.599 168.372,165.225 204.280 C 163.831 209.618,163.405 196.978,164.764 190.625 C 169.959 166.346,195.618 150.280,224.008 153.532 M109.642 157.129 C 111.968 158.711,112.784 161.971,111.511 164.589 C 109.014 169.721,100.039 167.680,100.006 161.973 C 99.981 157.488,105.840 154.542,109.642 157.129 M61.786 158.459 C 63.103 159.651,62.450 161.525,60.474 162.223 C 59.546 162.552,57.813 161.078,57.813 159.960 C 57.813 158.028,60.280 157.096,61.786 158.459 M347.845 158.448 C 348.742 159.345,348.430 160.916,347.168 161.854 L 346.094 162.653 345.020 161.854 C 343.703 160.876,343.372 159.055,344.377 158.320 C 345.335 157.620,347.081 157.684,347.845 158.448 M308.553 171.693 C 312.640 176.348,307.024 180.377,294.838 181.535 C 289.797 182.013,287.658 175.314,292.245 173.413 C 298.661 170.756,306.962 169.880,308.553 171.693 M219.336 172.667 C 223.347 173.117,228.292 174.305,230.839 175.430 L 232.577 176.197 227.982 178.723 C 225.454 180.113,223.333 181.250,223.268 181.250 C 222.870 181.250,207.971 190.410,201.758 194.475 C 191.116 201.436,186.324 207.661,185.104 216.113 C 183.580 226.664,189.027 236.627,199.204 241.903 C 200.659 242.658,201.036 243.137,202.031 245.508 L 203.180 248.242 201.883 249.347 C 194.681 255.481,169.664 270.171,161.590 273.007 C 156.981 274.626,156.889 274.574,159.797 271.987 C 174.531 258.875,176.376 253.750,174.605 230.859 C 173.640 218.379,173.830 207.970,175.110 203.125 C 180.492 182.770,198.551 170.332,219.336 172.667 M261.019 178.223 C 262.243 181.069,265.203 188.145,267.596 193.945 C 269.989 199.746,272.821 206.602,273.889 209.180 C 281.986 228.723,285.322 237.503,284.647 237.494 C 282.545 237.467,277.586 235.595,277.086 234.640 C 276.466 233.457,273.006 223.883,271.699 219.732 C 270.767 216.775,269.085 215.259,263.268 212.140 C 259.459 210.099,248.160 207.990,245.118 208.754 C 243.420 209.180,240.104 215.507,239.647 219.191 C 239.274 222.200,239.730 222.325,243.044 220.121 L 245.800 218.289 247.607 220.045 C 251.398 223.728,257.010 226.521,263.557 227.981 L 266.763 228.696 266.972 230.657 C 267.088 231.735,267.882 242.109,268.739 253.711 C 269.595 265.313,270.492 277.322,270.733 280.398 C 270.973 283.475,271.094 286.067,271.002 286.160 C 270.158 287.004,248.530 284.246,240.016 282.208 C 221.153 277.694,210.341 265.755,211.070 250.248 C 211.323 244.875,211.586 244.141,213.254 244.141 C 214.218 244.141,214.390 244.397,215.360 247.270 C 220.063 261.203,224.984 267.125,235.258 271.214 C 238.971 272.692,238.795 272.806,239.974 268.170 C 241.324 262.860,241.415 263.275,238.419 261.081 C 234.150 257.955,230.461 252.724,228.495 247.011 C 227.331 243.628,227.409 243.359,229.541 243.359 C 231.314 243.359,231.344 243.339,231.128 242.259 C 229.811 235.676,229.870 232.064,231.386 226.415 C 234.972 213.053,228.738 201.295,215.526 196.504 C 212.958 195.573,212.958 195.564,215.504 194.029 C 219.632 191.541,257.249 173.168,258.401 173.078 C 258.617 173.061,259.795 175.376,261.019 178.223 M106.152 182.432 C 108.408 183.891,108.630 187.781,106.542 189.244 C 104.915 190.384,96.157 190.091,94.820 188.851 C 92.917 187.087,93.528 182.999,95.843 182.007 C 97.175 181.436,105.119 181.764,106.152 182.432 M314.607 194.878 C 316.840 197.210,316.275 200.614,313.459 201.790 C 311.462 202.625,291.847 202.592,290.222 201.751 C 288.233 200.723,287.312 197.904,288.339 195.987 C 289.526 193.768,289.469 193.777,301.978 193.763 L 313.526 193.750 314.607 194.878 M215.034 205.046 C 228.594 211.722,227.369 230.826,213.114 234.970 C 204.223 237.554,194.981 231.550,193.340 222.122 C 191.208 209.883,204.157 199.692,215.034 205.046 M110.473 205.271 C 111.922 206.490,112.347 208.440,111.570 210.300 C 110.781 212.189,110.131 212.430,104.022 213.095 C 101.058 213.418,98.111 213.743,97.473 213.817 C 92.479 214.399,89.933 207.779,94.346 205.686 C 97.453 204.211,108.865 203.918,110.473 205.271 M308.977 216.309 C 313.783 218.724,312.876 226.188,307.658 227.167 C 304.758 227.711,301.584 226.066,300.770 223.597 C 299.108 218.562,304.293 213.956,308.977 216.309 M206.934 216.438 C 205.828 217.082,204.973 219.105,205.241 220.445 C 206.142 224.949,212.500 224.246,212.500 219.642 C 212.500 216.929,209.276 215.073,206.934 216.438 M112.336 232.837 C 117.573 237.729,111.916 245.717,105.548 242.424 C 101.881 240.527,101.805 234.369,105.424 232.399 C 107.442 231.301,110.929 231.522,112.336 232.837 M59.928 244.696 C 55.027 246.830,56.315 254.301,61.584 254.295 C 66.905 254.290,68.657 247.026,63.883 244.760 C 62.314 244.016,61.520 244.003,59.928 244.696 M341.360 246.048 C 337.306 250.102,341.785 256.153,346.999 253.666 C 348.634 252.886,349.609 251.305,349.609 249.432 C 349.609 244.827,344.626 242.782,341.360 246.048 M302.157 251.007 C 305.330 252.512,305.289 256.721,302.089 258.058 C 298.372 259.611,294.869 255.284,297.320 252.169 C 298.721 250.387,300.135 250.047,302.157 251.007 M69.154 265.363 C 65.550 266.580,64.906 272.243,68.130 274.356 C 71.125 276.318,75.781 273.873,75.781 270.339 C 75.781 266.607,72.584 264.206,69.154 265.363 M334.766 265.314 C 329.454 266.643,330.376 275.000,335.834 275.000 C 339.063 275.000,341.016 273.038,341.016 269.795 C 341.016 266.606,338.063 264.489,334.766 265.314 M198.606 269.043 C 204.342 279.084,213.222 286.521,230.074 295.398 C 232.117 296.475,234.644 297.813,235.688 298.373 L 237.587 299.390 237.349 301.417 C 236.857 305.603,237.213 305.612,230.646 301.246 C 215.115 290.921,200.448 283.483,186.523 278.870 C 184.375 278.159,182.529 277.509,182.422 277.426 C 182.188 277.247,182.917 276.661,186.895 273.828 C 188.554 272.646,191.413 270.493,193.247 269.043 C 195.081 267.593,196.698 266.406,196.841 266.406 C 196.983 266.406,197.777 267.593,198.606 269.043 M80.290 281.133 C 77.083 281.996,75.611 285.739,77.354 288.598 C 79.755 292.536,85.841 291.197,86.592 286.564 C 87.129 283.255,83.624 280.234,80.290 281.133 M323.958 281.288 C 319.663 282.531,319.588 289.401,323.855 290.679 C 328.637 292.112,332.603 286.581,329.467 282.854 C 328.654 281.888,326.278 280.747,325.391 280.897 C 325.283 280.915,324.639 281.091,323.958 281.288 M176.367 284.157 C 190.517 287.656,205.894 294.609,219.824 303.809 C 225.049 307.259,224.954 306.925,221.198 308.620 L 218.178 309.984 213.093 306.742 C 196.657 296.266,182.898 291.463,166.032 290.317 L 161.947 290.039 164.648 287.891 C 170.038 283.603,171.091 282.885,171.770 283.037 C 172.150 283.122,174.219 283.626,176.367 284.157 M95.038 299.984 C 92.659 301.435,92.000 303.976,93.328 306.579 C 95.188 310.225,100.953 309.640,102.261 305.672 C 103.688 301.341,98.942 297.604,95.038 299.984 M307.227 299.767 C 301.843 302.143,304.672 310.674,310.285 308.992 C 312.571 308.307,314.063 306.481,314.063 304.368 C 314.063 300.501,310.696 298.235,307.227 299.767 M118.693 319.021 C 116.711 320.251,115.883 323.245,116.952 325.313 C 119.447 330.138,126.172 328.341,126.172 322.850 C 126.172 319.198,121.918 317.020,118.693 319.021 M282.958 318.744 C 279.718 320.053,279.612 325.884,282.800 327.532 C 287.204 329.810,292.162 324.611,289.474 320.534 C 288.166 318.549,285.354 317.777,282.958 318.744 " stroke="none" fill="#05131c" fill-rule="evenodd"></path><path id="path2" d="M248.435 116.309 C 248.186 117.114,246.129 123.186,243.863 129.801 C 241.598 136.416,239.824 141.907,239.920 142.004 C 240.824 142.907,242.481 142.577,242.706 141.449 C 242.839 140.786,244.081 137.209,245.468 133.501 C 249.736 122.081,251.973 115.904,251.863 115.842 C 251.297 115.526,249.498 114.844,249.231 114.844 C 249.043 114.844,248.685 115.503,248.435 116.309 M210.352 153.512 C 190.833 155.614,173.624 167.217,171.677 179.590 C 171.306 181.945,171.492 181.829,177.348 176.052 C 196.450 157.207,223.146 153.807,247.716 167.089 C 247.856 167.165,248.784 166.171,249.777 164.879 L 251.584 162.531 250.304 161.850 C 238.039 155.319,222.904 152.161,210.352 153.512 M206.291 173.260 C 195.197 175.667,186.386 181.531,180.790 190.234 C 178.378 193.986,178.328 193.671,181.693 195.849 L 182.722 196.515 184.482 194.048 C 192.951 182.180,208.771 176.049,223.047 179.104 L 225.977 179.730 229.004 178.123 C 232.735 176.142,232.735 176.080,229.000 174.836 C 222.452 172.655,212.320 171.952,206.291 173.260 M248.434 177.781 C 236.261 183.482,215.377 193.874,214.117 194.857 L 213.196 195.576 215.680 196.485 C 217.046 196.985,218.826 197.722,219.636 198.122 L 221.107 198.851 225.300 196.536 C 230.845 193.474,254.345 182.031,255.088 182.031 C 255.257 182.031,255.927 183.306,256.576 184.863 C 257.225 186.421,258.834 190.244,260.152 193.359 C 261.470 196.475,263.139 200.430,263.861 202.148 C 264.582 203.867,265.954 207.119,266.908 209.375 C 267.862 211.631,268.775 213.916,268.936 214.453 C 269.097 214.990,269.620 215.869,270.099 216.406 C 270.577 216.943,271.904 220.107,273.047 223.438 C 277.172 235.459,277.180 235.475,279.036 235.953 C 279.931 236.183,281.500 236.640,282.521 236.968 C 283.543 237.296,284.552 237.506,284.765 237.434 C 285.099 237.322,278.476 220.379,272.346 205.664 C 271.272 203.086,269.130 197.900,267.586 194.141 C 263.065 183.130,258.910 173.438,258.642 173.272 C 258.505 173.187,253.911 175.216,248.434 177.781 M205.559 203.930 C 197.498 205.519,191.801 214.372,193.523 222.632 C 197.131 239.933,221.072 239.687,224.302 222.316 C 226.263 211.771,216.143 201.844,205.559 203.930 M213.045 209.746 C 221.830 213.998,222.091 225.284,213.499 229.349 C 208.941 231.505,204.145 230.486,200.761 226.642 C 193.349 218.222,203.036 204.900,213.045 209.746 M243.019 220.130 C 241.649 221.071,240.444 221.925,240.341 222.029 C 240.237 222.133,240.813 222.800,241.620 223.511 C 242.427 224.223,243.544 225.213,244.102 225.711 C 247.343 228.605,251.757 231.039,256.641 232.625 C 258.467 233.218,260.087 233.814,260.242 233.949 C 260.713 234.361,263.235 277.910,262.813 278.333 C 262.685 278.461,259.969 278.103,256.778 277.537 C 232.945 273.311,228.396 271.466,218.513 262.013 C 214.842 258.502,214.683 258.430,215.460 260.632 C 218.882 270.332,229.759 277.779,246.094 281.606 C 250.153 282.557,269.692 286.328,270.560 286.328 C 271.092 286.328,271.148 285.968,270.937 283.887 C 270.801 282.544,270.426 277.666,270.103 273.047 C 269.482 264.161,267.375 236.104,266.975 231.388 L 266.738 228.595 264.912 228.322 C 259.236 227.473,252.175 224.220,248.301 220.670 C 246.914 219.399,245.718 218.373,245.643 218.389 C 245.569 218.405,244.388 219.189,243.019 220.130 M200.250 243.552 C 199.696 244.997,173.339 260.727,170.704 261.186 C 170.382 261.242,169.595 261.956,168.954 262.773 C 167.624 264.469,162.435 269.732,159.638 272.221 C 152.070 278.957,175.065 267.384,193.142 255.358 C 198.910 251.521,203.125 248.534,203.125 248.284 C 203.125 247.991,200.762 242.969,200.624 242.969 C 200.542 242.969,200.373 243.231,200.250 243.552 M168.033 285.234 C 165.144 287.571,165.069 287.475,170.703 288.652 C 183.059 291.234,199.754 298.309,212.823 306.502 C 218.906 310.316,217.873 310.075,221.386 308.498 C 224.866 306.936,224.907 307.217,220.801 304.476 C 206.699 295.064,189.088 287.118,175.000 283.811 C 171.223 282.924,170.775 283.016,168.033 285.234 " stroke="none" fill="#f7efe6" fill-rule="evenodd"></path></g></svg>